# AST/ASF file generated using VICON BodyLanguage
# -----------------------------------------------
:version 1.10
:name VICON
:units
  mass 1.0
  length 0.45
  angle deg
:documentation
   .ast/.asf automatically generated from VICON data using
   VICON BodyBuilder and BodyLanguage model FoxedUp or BRILLIANT.MOD
:root
   order TX TY TZ RX RY RZ
   axis XYZ
   position 0 0 0  
   orientation 0 0 0 
:bonedata
  begin
     id 1 
     name lhipjoint
     direction 0.650112 -0.723553 0.232005 
     length 2.45805 
     axis 0 0 0  XYZ
  end
  begin
     id 2 
     name lfemur
     direction 0.34202 -0.939693 0  
     length 7.00073  
     axis 0 0 20  XYZ
    dof rx ry rz
    limits (-160.0 20.0)
           (-70.0 70.0)
           (-60.0 70.0)
  end
  begin
     id 3 
     name ltibia
     direction 0.34202 -0.939693 0   
     length 7.8748   
     axis 0 0 20   XYZ
    dof rx
    limits (-10.0 170.0)
  end
  begin
     id 4 
     name lfoot
     direction 0.0542825 -0.14914 0.987325   
     length 1.75978   
     axis -90 7.62852e-016 20   XYZ
    dof rx rz
    limits (-45.0 90.0)
           (-70.0 20.0)
  end
  begin
     id 5 
     name ltoes
     direction 1.53509e-011 -4.21906e-011 1   
     length 0.893912   
     axis -90 7.62852e-016 20   XYZ
    dof rx
    limits (-90.0 20.0)
  end
  begin
     id 6 
     name rhipjoint
     direction -0.637897 -0.733345 0.235145   
     length 2.42522  
     axis 0 0 0  XYZ 
  end
  begin
     id 7 
     name rfemur
     direction -0.34202 -0.939693 0   
     length 7.02549   
     axis 0 0 -20   XYZ
    dof rx ry rz
    limits (-160.0 20.0)
           (-70.0 70.0)
           (-70.0 60.0)
  end
  begin
     id 8 
     name rtibia
     direction -0.34202 -0.939693 0   
     length 7.71512   
     axis 0 0 -20   XYZ
    dof rx
    limits (-10.0 170.0)
 end
 begin
     id 9 
     name rfoot
     direction -0.0822618 -0.226012 0.970645   
     length 1.90014  
     axis -90 -7.62852e-016 -20   XYZ
    dof rx rz
    limits (-45.0 90.0)
           (-20.0 70.0)
  end
  begin
     id 10 
     name rtoes
     direction -1.53542e-011 -4.21872e-011 1   
     length 0.957341   
     axis -90 -7.62852e-016 -20   XYZ
    dof rx
    limits (-90.0 20.0)
  end
  begin
     id 11 
     name lowerback
     direction -0.0022947 0.999774 -0.0211557   
     length 1.89909   
     axis 0 0 0   XYZ
    dof rx ry rz
    limits (-20.0 45.0)
           (-30.0 30.0)
           (-30.0 30.0)
  end
  begin
     id 12 
     name upperback
     direction 0.0107737 0.998635 0.0511027   
     length 1.8853   
     axis 0 0 0   XYZ
    dof rx ry rz
    limits (-20.0 45.0)
           (-30.0 30.0)
           (-30.0 30.0)
  end
  begin
     id 13 
     name thorax
     direction 0.011824 0.998136 0.0598754   
     length 1.88911   
     axis 0 0 0   XYZ
    dof rx ry rz
    limits (-20.0 45.0)
           (-30.0 30.0)
           (-30.0 30.0)
  end
  begin
     id 14 
     name lowerneck
     direction -0.0685355 0.990319 0.120714   
     length 1.91222   
     axis 0 0 0   XYZ
    dof rx ry rz
    limits (-20.0 45.0)
           (-30.0 30.0)
           (-30.0 30.0)
  end
  begin
     id 15 
     name upperneck
     direction 0.0886204 0.955665 -0.280805   
     length 1.92526   
     axis 0 0 0   XYZ
    dof rx ry rz
    limits (-20.0 45.0)
           (-30.0 30.0)
           (-30.0 30.0)
  end
  begin
     id 16
     name head
     direction 0.0233423 0.993502 -0.111393  
     length 1.96056  
     axis 0 0 0   XYZ
    dof rx ry rz
    limits (-20.0 45.0)
           (-30.0 30.0)
           (-30.0 30.0)
  end
  begin
     id 17 
     name lclavicle
     direction 0.941873 0.32922 0.0670041  
     length 3.31705  
     axis 0 0 0   XYZ
    dof ry rz
    limits (-20.0 10.0)
           (0.0 20.0)
  end
  begin
     id 18 
     name lhumerus
     direction 1 -4.4898e-011 3.38707e-028   
     length 5.29277   
     axis 180 -30 -90   XYZ
    dof rx ry rz
    limits (-60.0 90.0)
           (-90.0 90.0)
           (-90.0 90.0)
  end
  begin
     id 19
     name lradius
     direction 1 -4.48952e-011 1.63213e-028   
     length 2.85226   
     axis 180 -30 -90   XYZ
    dof rx
    limits (-10.0 170.0)
  end
  begin
     id 20
     name lwrist
     direction 1 -4.49001e-011 1.27856e-027   
     length 1.42613   
     axis -1.61767e-015 90 90   XYZ
    dof ry
    limits (-180.0 0.0)
 end
  begin
     id 21 
     name lhand
     direction 1 -4.48976e-011 2.55931e-027   
     length 0.602097   
     axis -1.63363e-015 90 90   XYZ
    dof rx rz
    limits (-90.0 90.0)
           (-45.0 45.0)
  end
  begin
     id 22 
     name lfingers
     direction 1 -4.48986e-011 5.11684e-027   
     length 0.485426   
     axis -3.26723e-015 90 90   XYZ
    dof rx
    limits (0.0 90.0)
  end
  begin
     id 23
     name lthumb
     direction 0.707107 -6.34915e-011 0.707107   
     length 0.696978   
     axis -90 45 -2.25915e-014   XYZ
    dof rx rz
    limits (-45.0 45.0)
           (-45.0 45.0)
  end
  begin
     id 24 
     name rclavicle
     direction -0.939974 0.327078 0.0973096   
     length 3.10337  
     axis 0 0 0   XYZ 
    dof ry rz
    limits (-10.0 20.0)
           (-20.0 0.0)
  end
  begin
     id 25 
     name rhumerus
     direction -1 -4.48975e-011 1.83745e-027  
     length 5.13304   
     axis 180 30 90   XYZ
    dof rx ry rz
    limits (-90.0 60.0)
           (-90.0 90.0)
           (-90.0 90.0)
  end
  begin
     id 26 
     name rradius
     direction -1 -4.48977e-011 7.1775e-029   
     length 2.74305   
     axis 180 30 90   XYZ
    dof rx
    limits (-10.0 170.0)
  end
  begin
     id 27 
     name rwrist
     direction -1 -4.48977e-011 1.27963e-027   
     length 1.37152   
     axis -1.61767e-015 -90 -90   XYZ
    dof ry
    limits (-180.0 0.0)
  end
  begin
     id 28
     name rhand
     direction -1 -4.4888e-011 2.56782e-027   
     length 0.767976   
     axis -1.63363e-015 -90 -90   XYZ
    dof rx rz
    limits (-90.0 90.0)
           (-45.0 45.0)
  end
  begin
     id 29
     name rfingers
     direction -1 -4.48947e-011 5.12384e-027   
     length 0.619162   
     axis -3.26723e-015 -90 -90   XYZ
    dof rx
    limits (0.0 90.0)
  end
  begin
     id 30
     name rthumb
     direction -0.707107 -6.34857e-011 0.707107   
     length 0.888997   
     axis -90 -45 2.25915e-014   XYZ
    dof rx rz
    limits (-45.0 45.0)
           (-45.0 45.0)
  end
:hierarchy
  begin
    root lhipjoint rhipjoint lowerback
    lhipjoint lfemur
    lfemur ltibia
    ltibia lfoot
    lfoot ltoes
    rhipjoint rfemur
    rfemur rtibia
    rtibia rfoot
    rfoot rtoes
    lowerback upperback
    upperback thorax
    thorax lowerneck lclavicle rclavicle
    lowerneck upperneck
    upperneck head
    lclavicle lhumerus
    lhumerus lradius
    lradius lwrist
    lwrist lhand lthumb
    lhand lfingers
    rclavicle rhumerus
    rhumerus rradius
    rradius rwrist
    rwrist rhand rthumb
    rhand rfingers
  end

#!OML:ASF F:\VICON\USERDATA\INSTALL\rory3\rory3.ASF
:FULLY-SPECIFIED
:DEGREES
592
root 0.237429 17.4812 0.444316 5.1266 2.15346 -0.302794
lowerback -1.77528 -0.243038 -2.01025
upperback -3.47548 -0.302341 0.976884
thorax -2.55829 -0.0854169 2.1319
lowerneck -9.20236 -11.7468 -19.0922
upperneck 18.7301 -17.4976 19.3323
head 11.0862 -7.92305 7.62255
rclavicle 4.55962e-015 8.34896e-015
rhumerus -38.9273 8.11521 -91.5753
rradius 25.4317
rwrist 11.2381
rhand 3.45624 14.3858
rfingers 7.12502
rthumb 28.8964 -13.3958
lclavicle 4.55962e-015 8.34896e-015
lhumerus -34.1159 -10.6331 98.0629
lradius 22.4095
lwrist -4.29923
lhand 5.73598 21.5804
lfingers 7.12502
lthumb 31.0717 48.9682
rfemur 0 0 0
rtibia 0
rfoot 0 0
rtoes 0
lfemur -6.07235 -18.5887 -17.5741
ltibia 13.4583
lfoot -12.4068 12.5878
ltoes -18.8315
593
root 0.23746 17.4814 0.441479 5.10129 2.20104 -0.300204
lowerback -1.72388 -0.252692 -2.00475
upperback -3.47458 -0.316147 0.976569
thorax -2.58555 -0.0921338 2.12882
lowerneck -9.19311 -11.741 -19.0912
upperneck 18.6821 -17.4925 19.3708
head 11.0701 -7.91884 7.63716
rclavicle 8.28684e-015 -2.57426e-014
rhumerus -38.9482 8.2571 -91.6363
rradius 25.5158
rwrist 11.2491
rhand 3.54689 14.2929
rfingers 7.12502
rthumb 28.983 -13.4738
lclavicle 8.28684e-015 -2.57426e-014
lhumerus -34.1243 -10.9152 98.1722
lradius 22.4531
lwrist -4.07035
lhand 5.84575 21.8342
lfingers 7.12502
lthumb 31.1763 49.2019
rfemur 0 0 0
rtibia 0
rfoot 0 0
rtoes 0
lfemur -6.04316 -18.6351 -17.5615
ltibia 13.4048
lfoot -12.3385 12.5452
ltoes -18.8104
594
root 0.238615 17.4813 0.440897 5.09739 2.24222 -0.270968
lowerback -1.74918 -0.263883 -2.00423
upperback -3.4635 -0.330785 0.966572
thorax -2.55914 -0.100044 2.11811
lowerneck -9.158 -11.736 -19.0808
upperneck 18.6137 -17.4859 19.3913
head 11.038 -7.91655 7.64372
rclavicle 1.50952e-015 3.97569e-015
rhumerus -38.9872 8.41406 -91.7182
rradius 25.6071
rwrist 11.2365
rhand 3.51005 14.2586
rfingers 7.12502
rthumb 28.9478 -13.5141
lclavicle 1.50952e-015 3.97569e-015
lhumerus -34.1108 -11.1615 98.2704
lradius 22.4451
lwrist -3.97653
lhand 5.83019 21.8016
lfingers 7.12502
lthumb 31.1615 49.1722
rfemur 0 0 0
rtibia 0
rfoot 0 0
rtoes 0
lfemur -6.01466 -18.6788 -17.5884
ltibia 13.351
lfoot -12.2545 12.5309
ltoes -18.8306
595
root 0.239664 17.4809 0.440945 5.08857 2.28009 -0.208953
lowerback -1.78767 -0.26657 -2.04614
upperback -3.43902 -0.334108 0.937605
thorax -2.51206 -0.10188 2.11151
lowerneck -9.22617 -11.7596 -19.0368
upperneck 18.6726 -17.5185 19.3576
head 11.072 -7.92576 7.61562
rclavicle 3.43525e-015 3.77691e-015
rhumerus -39.0064 8.57265 -91.82
rradius 25.7203
rwrist 11.2106
rhand 3.45194 14.1815
rfingers 7.12502
rthumb 28.8923 -13.6007
lclavicle 3.43525e-015 3.77691e-015
lhumerus -34.12 -11.5822 98.4084
lradius 22.4931
lwrist -3.82574
lhand 5.77209 21.6249
lfingers 7.12502
lthumb 31.1061 49.0061
rfemur 0 0 0
rtibia 0
rfoot 0 0
rtoes 0
lfemur -5.99587 -18.725 -17.6711
ltibia 13.3429
lfoot -12.4662 12.5237
ltoes -17.8393
596
root 0.239465 17.4795 0.438731 5.06289 2.31097 -0.169126
lowerback -1.76498 -0.271 -2.08755
upperback -3.43556 -0.340778 0.917935
thorax -2.52087 -0.104375 2.11465
lowerneck -9.32363 -11.7688 -18.9247
upperneck 18.76 -17.5225 19.2486
head 11.0994 -7.92076 7.55217
rclavicle -2.60284e-015 -9.93923e-017
rhumerus -39.0149 8.68119 -91.898
rradius 25.7929
rwrist 11.2445
rhand 3.43813 14.0843
rfingers 7.12502
rthumb 28.8791 -13.7002
lclavicle -2.60284e-015 -9.93923e-017
lhumerus -34.1426 -11.7867 98.4451
lradius 22.5349
lwrist -3.89913
lhand 5.48324 21.1105
lfingers 7.12502
lthumb 30.8308 48.5441
rfemur 0 0 0
rtibia 0
rfoot 0 0
rtoes 0
lfemur -5.98016 -18.7607 -17.719
ltibia 13.3451
lfoot -12.5049 12.5248
ltoes -17.7757
597
root 0.237178 17.4789 0.43545 5.01725 2.36297 -0.262553
lowerback -1.70466 -0.288339 -2.05288
upperback -3.42115 -0.36389 0.975489
thorax -2.53853 -0.115907 2.15483
lowerneck -9.40501 -11.7466 -18.8934
upperneck 18.77 -17.4745 19.2177
head 11.1012 -7.89387 7.54123
rclavicle 1.00262e-014 -9.93923e-015
rhumerus -39.0259 8.96124 -92.0079
rradius 25.8673
rwrist 11.1226
rhand 3.42459 14.0218
rfingers 7.12502
rthumb 28.8662 -13.7649
lclavicle 1.00262e-014 -9.93923e-015
lhumerus -34.1038 -11.8387 98.4852
lradius 22.5442
lwrist -3.96919
lhand 5.186 20.7088
lfingers 7.12502
lthumb 30.5474 48.1955
rfemur 0 0 0
rtibia 0
rfoot 0 0
rtoes 0
lfemur -5.97924 -18.8011 -17.5934
ltibia 13.373
lfoot -12.3996 12.6199
ltoes -18.8183
598
root 0.236277 17.4782 0.433225 5.00007 2.42067 -0.258682
lowerback -1.68756 -0.314008 -2.10429
upperback -3.41323 -0.397815 1.00692
thorax -2.53784 -0.131219 2.21631
lowerneck -9.4705 -11.7332 -18.8812
upperneck 18.8247 -17.4471 19.186
head 11.1229 -7.87814 7.53157
rclavicle 9.62863e-016 -1.13307e-014
rhumerus -39.0422 9.23711 -92.1069
rradius 25.9442
rwrist 10.996
rhand 3.49951 14.004
rfingers 7.12502
rthumb 28.9378 -13.7705
lclavicle 9.62863e-016 -1.13307e-014
lhumerus -34.0535 -11.8116 98.4831
lradius 22.5676
lwrist -4.26953
lhand 5.22737 20.7082
lfingers 7.12502
lthumb 30.5868 48.1876
rfemur 0 0 0
rtibia 0
rfoot 0 0
rtoes 0
lfemur -5.99927 -18.8583 -17.5855
ltibia 13.4092
lfoot -12.4409 12.6137
ltoes -18.4543
599
root 0.23655 17.4786 0.431204 4.9967 2.47722 -0.300503
lowerback -1.69186 -0.301567 -2.02599
upperback -3.41475 -0.381422 0.990438
thorax -2.53819 -0.125189 2.15524
lowerneck -9.47365 -11.7451 -18.8477
upperneck 18.8287 -17.4774 19.2102
head 11.1314 -7.88732 7.52951
rclavicle -2.91965e-015 3.97569e-015
rhumerus -39.0091 9.13963 -92.0892
rradius 25.9594
rwrist 11.1316
rhand 3.67676 14.0428
rfingers 7.12502
rthumb 29.1071 -13.7025
lclavicle -2.91965e-015 3.97569e-015
lhumerus -34.0026 -11.8324 98.4407
lradius 22.5543
lwrist -4.85128
lhand 5.39385 20.833
lfingers 7.12502
lthumb 30.7456 48.2827
rfemur 0 0 0
rtibia 0
rfoot 0 0
rtoes 0
lfemur -6.03971 -18.9088 -17.5186
ltibia 13.4464
lfoot -12.4923 12.5486
ltoes -17.7456
600
root 0.237422 17.4793 0.429718 5.00572 2.50721 -0.336532
lowerback -1.74162 -0.293376 -1.97551
upperback -3.39897 -0.36942 0.997136
thorax -2.49467 -0.121042 2.13333
lowerneck -9.44084 -11.7508 -18.8535
upperneck 18.7491 -17.4866 19.2517
head 11.1034 -7.89168 7.54319
rclavicle -4.24281e-015 -1.19271e-014
rhumerus -38.996 9.1301 -92.0828
rradius 26.0097
rwrist 11.1985
rhand 3.70626 14.0554
rfingers 7.12502
rthumb 29.1352 -13.6851
lclavicle -4.24281e-015 -1.19271e-014
lhumerus -33.933 -11.9727 98.5122
lradius 22.4445
lwrist -4.94455
lhand 5.44445 21.0584
lfingers 7.12502
lthumb 30.7938 48.499
rfemur 0 0 0
rtibia 0
rfoot 0 0
rtoes 0
lfemur -6.06488 -18.9345 -17.4714
ltibia 13.4392
lfoot -12.4473 12.541
ltoes -17.6484
601
root 0.239609 17.4792 0.427704 4.98621 2.55851 -0.305014
lowerback -1.73512 -0.287028 -1.97269
upperback -3.39778 -0.361479 0.97396
thorax -2.49762 -0.117429 2.10789
lowerneck -9.31756 -11.7442 -18.8569
upperneck 18.623 -17.4937 19.3251
head 11.0436 -7.89877 7.57199
rclavicle 5.96354e-016 -8.05078e-015
rhumerus -38.9555 8.94462 -92.0021
rradius 25.9497
rwrist 11.3853
rhand 3.67187 14.1179
rfingers 7.12502
rthumb 29.1024 -13.6282
lclavicle 5.96354e-016 -8.05078e-015
lhumerus -33.9549 -12.2746 98.6613
lradius 22.3794
lwrist -4.73712
lhand 5.24051 21.3177
lfingers 7.12502
lthumb 30.5993 48.7948
rfemur 0 0 0
rtibia 0
rfoot 0 0
rtoes 0
lfemur -6.05455 -18.9905 -17.5156
ltibia 13.4421
lfoot -12.4367 12.5456
ltoes -17.6536
602
root 0.24125 17.4802 0.42491 4.97573 2.63244 -0.237003
lowerback -1.7145 -0.285608 -1.98417
upperback -3.4024 -0.361003 0.918778
thorax -2.51422 -0.117421 2.05768
lowerneck -9.20259 -11.7396 -18.8289
upperneck 18.5132 -17.5164 19.419
head 10.9944 -7.90862 7.60092
rclavicle 1.07157e-014 -1.0138e-014
rhumerus -38.9296 8.83189 -92.0284
rradius 25.9376
rwrist 11.4103
rhand 3.66197 13.9776
rfingers 7.12502
rthumb 29.0929 -13.7701
lclavicle 1.07157e-014 -1.0138e-014
lhumerus -33.9385 -12.436 98.6861
lradius 22.356
lwrist -4.84801
lhand 5.11954 21.3161
lfingers 7.12502
lthumb 30.484 48.8147
rfemur 0 0 0
rtibia 0
rfoot 0 0
rtoes 0
lfemur -6.07051 -19.071 -17.5831
ltibia 13.4466
lfoot -12.3359 12.5902
ltoes -17.9729
603
root 0.24266 17.48 0.423724 4.97114 2.67319 -0.239253
lowerback -1.70608 -0.271189 -1.93931
upperback -3.43221 -0.342523 0.891223
thorax -2.55091 -0.108956 2.00423
lowerneck -9.07671 -11.7278 -18.8061
upperneck 18.4604 -17.5278 19.468
head 10.9564 -7.91713 7.6182
rclavicle -1.3977e-015 6.65929e-015
rhumerus -39.0018 8.80753 -92.0936
rradius 25.9796
rwrist 11.3116
rhand 3.63544 13.7911
rfingers 7.12502
rthumb 29.0676 -13.961
lclavicle -1.3977e-015 6.65929e-015
lhumerus -34.0127 -12.7388 98.8349
lradius 22.3472
lwrist -4.6694
lhand 5.13836 21.786
lfingers 7.12502
lthumb 30.5019 49.2812
rfemur 0 0 0
rtibia 0
rfoot 0 0
rtoes 0
lfemur -6.08474 -19.1124 -17.5852
ltibia 13.4728
lfoot -12.3163 12.635
ltoes -18.3875
604
root 0.243324 17.4802 0.423156 4.96928 2.69439 -0.274999
lowerback -1.72766 -0.234881 -1.89158
upperback -3.44232 -0.293715 0.889329
thorax -2.55172 -0.0856578 1.97518
lowerneck -8.99882 -11.7517 -18.8314
upperneck 18.4459 -17.581 19.5127
head 10.956 -7.94459 7.63238
rclavicle 5.66536e-015 6.75868e-015
rhumerus -39.003 8.57656 -91.979
rradius 25.904
rwrist 11.4482
rhand 3.55158 14.0414
rfingers 7.12502
rthumb 28.9875 -13.7245
lclavicle 5.66536e-015 6.75868e-015
lhumerus -33.9741 -12.9846 98.9623
lradius 22.2238
lwrist -4.54994
lhand 5.165 22.1252
lfingers 7.12502
lthumb 30.5273 49.6156
rfemur 0 0 0
rtibia 0
rfoot 0 0
rtoes 0
lfemur -6.11071 -19.1302 -17.5451
ltibia 13.5098
lfoot -12.2835 12.7109
ltoes -19.1402
605
root 0.243869 17.4797 0.422075 4.94827 2.71986 -0.341246
lowerback -1.73913 -0.218984 -1.84466
upperback -3.4334 -0.271384 0.933965
thorax -2.53709 -0.0752757 1.99457
lowerneck -8.98442 -11.7714 -18.9001
upperneck 18.4412 -17.6131 19.5649
head 10.9723 -7.96077 7.65823
rclavicle 5.08143e-015 -5.36719e-015
rhumerus -38.9639 8.41286 -91.818
rradius 25.8195
rwrist 11.5595
rhand 3.51425 14.2697
rfingers 7.12502
rthumb 28.9518 -13.5023
lclavicle 5.08143e-015 -5.36719e-015
lhumerus -33.8332 -12.9255 98.987
lradius 22.0499
lwrist -4.79836
lhand 5.03285 22.0641
lfingers 7.12502
lthumb 30.4013 49.5779
rfemur 0 0 0
rtibia 0
rfoot 0 0
rtoes 0
lfemur -6.12326 -19.1498 -17.4755
ltibia 13.5536
lfoot -12.369 12.6394
ltoes -18.8259
606
root 0.243543 17.4796 0.422119 4.91942 2.75533 -0.344028
lowerback -1.77161 -0.200978 -1.86811
upperback -3.41039 -0.246631 0.93803
thorax -2.49623 -0.0629193 2.01158
lowerneck -8.92623 -11.792 -18.9299
upperneck 18.3741 -17.6553 19.6392
head 10.9583 -7.98088 7.68386
rclavicle -1.36043e-015 8.84592e-015
rhumerus -38.9128 8.21915 -91.7029
rradius 25.7565
rwrist 11.6662
rhand 3.52588 14.3114
rfingers 7.12502
rthumb 28.963 -13.4587
lclavicle -1.36043e-015 8.84592e-015
lhumerus -33.7043 -12.6704 98.8783
lradius 21.8843
lwrist -5.3548
lhand 4.9616 22.0222
lfingers 7.12502
lthumb 30.3333 49.5486
rfemur 0 0 0
rtibia 0
rfoot 0 0
rtoes 0
lfemur -6.12035 -19.185 -17.4693
ltibia 13.584
lfoot -12.4737 12.5876
ltoes -18.1799
607
root 0.244606 17.48 0.423807 4.89994 2.75267 -0.349346
lowerback -1.82461 -0.18841 -1.8883
upperback -3.38911 -0.228379 0.96448
thorax -2.44529 -0.0537035 2.04977
lowerneck -8.91004 -11.8066 -18.9625
upperneck 18.3594 -17.6685 19.6299
head 10.955 -7.99088 7.68291
rclavicle -6.54747e-015 -4.96962e-015
rhumerus -38.8884 8.13298 -91.6186
rradius 25.7031
rwrist 11.8261
rhand 3.38084 14.3169
rfingers 7.12502
rthumb 28.8244 -13.4769
lclavicle -6.54747e-015 -4.96962e-015
lhumerus -33.5681 -12.3455 98.7945
lradius 21.6865
lwrist -5.89218
lhand 4.80493 21.8833
lfingers 7.12502
lthumb 30.1839 49.4371
rfemur 0 0 0
rtibia 0
rfoot 0 0
rtoes 0
lfemur -6.10477 -19.1836 -17.4773
ltibia 13.6178
lfoot -12.4838 12.5925
ltoes -18.1589
